<svg xmlns="http://www.w3.org/2000/svg" xmlns:xlink="http://www.w3.org/1999/xlink" xmlns:inkscape="http://www.inkscape.org/namespaces/inkscape" version="1.1" width="594.62" height="371.332" viewBox="0 0 594.62 371.332">
<defs>
<clipPath id="clip_0">
<path transform="matrix(1,0,0,-1,0,371.332)" d="M0 371.332H594.62V0H0Z"/>
</clipPath>
</defs>
<g inkscape:groupmode="layer" inkscape:label="Layer 1">
<g clip-path="url(#clip_0)">
<path transform="matrix(1,0,0,-1,381.2151,134.1952)" d="M0 0C-1.824-.579-3.741-.782-5.745-.596-7.749-.41-9.698 .186-11.592 1.193L-12.805 2.01-26.365-23.485C-27-24.403-27.172-25.371-26.883-26.421-26.587-27.459-26.003-28.291-25.149-28.892L-24.806-29.075C-22.913-30.082-21.329-31.364-20.054-32.922-18.78-34.48-17.851-36.197-17.248-38.066-16.657-39.929-16.448-41.834-16.587-43.781-16.739-45.722-17.308-47.62-18.288-49.462-19.295-51.356-20.557-52.901-22.068-54.087-23.591-55.265-25.24-56.067-27.034-56.466-28.847-56.871-30.729-56.946-32.686-56.672-34.643-56.397-36.571-55.763-38.464-54.756L-39.062-54.438C-43.177-52.184-46.695-49.449-49.627-46.227-52.559-43.005-54.678-39.449-55.99-35.54-57.301-31.631-57.743-27.435-57.315-22.951-56.899-18.648-55.462-14.219-53.122-9.67-53.08-9.587-53.091-9.492-53.047-9.409L-39.439 16.176C-41.282 17.156-44.359 19.06-45.608 20.605-46.856 22.149-47.747 23.846-48.313 25.695-48.878 27.544-49.081 29.462-48.915 31.428-48.743 33.406-48.18 35.324-47.207 37.154-46.227 38.996-44.952 40.535-43.414 41.771-41.869 43.02-40.166 43.924-38.317 44.489-36.468 45.054-34.563 45.264-32.564 45.13-30.565 44.996-27.116 43.79-25.274 42.81L-16.831 58.988C-15.824 60.881-14.529 62.458-12.933 63.712-11.349 64.973-9.633 65.87-7.805 66.397-5.969 66.936-4.065 67.114-2.092 66.961-.113 66.789 1.785 66.22 3.627 65.24 5.47 64.26 7.015 62.998 8.251 61.46 9.494 59.903 10.411 58.225 10.989 56.401 11.575 54.59 11.765 52.679 11.592 50.668 11.406 48.664 10.81 46.715 9.803 44.822L1.36 28.645 2.574 27.827C4.467 26.82 6.051 25.538 7.318 23.967 8.593 22.409 9.496 20.706 10.043 18.883 10.57 17.054 10.753 15.131 10.568 13.126 10.382 11.122 9.812 9.192 8.832 7.35 7.859 5.52 6.584 3.981 5.039 2.732 3.502 1.496 1.811 .585 0 0" fill="#010101"/>
<path transform="matrix(1,0,0,-1,528.2546,207.6625)" d="M0 0C-1.492-1.197-3.208-2.078-5.144-2.627-7.08-3.177-9.113-3.323-11.242-3.067L-12.669-2.742-16.124-31.412C-16.385-32.497-16.197-33.461-15.549-34.337-14.899-35.198-14.053-35.764-13.04-36.016L-12.654-36.063C-10.525-36.319-8.586-36.945-6.835-37.938-5.085-38.932-3.599-40.198-2.363-41.725-1.14-43.249-.258-44.95 .315-46.817 .873-48.682 1.026-50.657 .776-52.729 .52-54.858-.1-56.755-1.082-58.405-2.078-60.054-3.327-61.396-4.856-62.415-6.401-63.447-8.129-64.195-10.054-64.645-11.978-65.094-14.005-65.198-16.135-64.941L-16.806-64.86C-21.457-64.242-25.724-62.959-29.621-61.011-33.518-59.063-36.776-56.51-39.409-53.337-42.042-50.164-43.967-46.409-45.184-42.073-46.348-37.909-46.605-33.26-46.063-28.173-46.053-28.08-46.097-27.996-46.086-27.902L-42.619 .868C-44.691 1.117-48.247 1.784-49.969 2.775-51.691 3.765-53.134 5.026-54.327 6.547-55.521 8.068-56.402 9.783-56.956 11.677-57.509 13.585-57.675 15.576-57.427 17.634-57.178 19.706-56.543 21.601-55.555 23.308-54.564 25.03-53.302 26.487-51.781 27.681-50.259 28.875-48.559 29.757-46.646 30.353-44.733 30.949-41.081 31.067-39.009 30.818L-36.967 48.951C-36.711 51.08-36.071 53.018-35.035 54.763-34.012 56.51-32.735 57.965-31.219 59.116-29.702 60.282-27.99 61.134-26.095 61.703-24.187 62.256-22.212 62.409-20.14 62.159-18.068 61.91-16.171 61.29-14.464 60.301-12.743 59.296-11.283 58.062-10.086 56.57-8.887 55.091-8.021 53.378-7.457 51.44-6.907 49.504-6.761 47.471-7.017 45.342L-9.059 27.208-7.633 26.883C-5.504 26.627-3.564 26.002-1.815 24.994-.065 24 1.392 22.737 2.559 21.234 3.71 19.718 4.574 17.99 5.124 16.054 5.673 14.117 5.838 12.112 5.588 10.04 5.34 7.982 4.706 6.087 3.715 4.365 2.727 2.658 1.478 1.199 0 0" fill="#010101"/>
<path transform="matrix(1,0,0,-1,181.6685,145.4375)" d="M0 0C0-2.274 .432-4.39 1.31-6.347 2.202-8.29 3.382-10.003 4.879-11.471 6.376-12.939 8.103-14.09 10.06-14.939 12.003-15.789 14.09-16.206 16.307-16.206 18.509-16.206 20.61-15.789 22.596-14.939 24.583-14.09 26.324-12.939 27.821-11.471 29.318-10.003 30.498-8.29 31.333-6.347 32.182-4.39 32.614-2.274 32.614 0 32.614 2.274 32.182 4.39 31.333 6.347 30.498 8.305 29.318 10.003 27.821 11.471 26.324 12.939 24.583 14.09 22.596 14.939 20.61 15.789 18.509 16.206 16.307 16.206 14.09 16.206 12.003 15.789 10.06 14.939 8.103 14.09 6.376 12.939 4.879 11.471 3.382 10.003 2.202 8.305 1.31 6.347 .432 4.39 0 2.274 0 0M-30.268 0C-30.268 6.448-29.03 12.478-26.554 18.12-24.079 23.748-20.74 28.67-16.508 32.901-12.277 37.133-7.34 40.472-1.713 42.919 3.915 45.351 9.916 46.574 16.307 46.574 22.74 46.574 28.785 45.351 34.413 42.919 40.04 40.472 44.962 37.133 49.151 32.901 53.353 28.67 56.678 23.748 59.11 18.12 61.557 12.478 62.78 6.448 62.78 0 62.78-6.376 61.557-12.392 59.11-18.063 56.678-23.719 53.353-28.656 49.151-32.858 44.962-37.046 40.04-40.371 34.413-42.803 28.785-45.25 22.74-46.474 16.307-46.474 9.916-46.474 3.915-45.25-1.713-42.803-7.34-40.371-12.277-37.046-16.508-32.858-20.74-28.656-24.079-23.719-26.554-18.063-29.03-12.392-30.268-6.376-30.268 0" fill="#010101"/>
<path transform="matrix(1,0,0,-1,310.6587,100.12811)" d="M0 0C-1.263 1.437-2.801 2.601-4.613 3.476-6.425 4.352-8.402 4.847-10.544 4.962L-13.662 5.129-13.484 8.449C-13.554 9.563-13.202 10.481-12.412 11.231-11.623 11.967-10.693 12.378-9.652 12.452L-9.264 12.431C-7.122 12.316-5.104 12.597-3.208 13.274-1.312 13.95 .369 14.941 1.851 16.231 3.319 17.521 4.481 19.044 5.367 20.784 6.239 22.525 6.731 24.444 6.843 26.528 6.958 28.669 6.675 30.645 5.993 32.44 5.297 34.236 4.298 35.774 2.968 37.041 1.624 38.324 .051 39.36-1.766 40.135-3.584 40.91-5.563 41.362-7.705 41.477L-8.38 41.513C-13.069 41.707-17.493 41.181-21.667 39.935-25.842 38.688-29.493 36.737-32.634 34.066-35.775 31.395-38.32 28.029-40.267 23.968-42.132 20.068-43.188 15.533-43.532 10.429-43.539 10.336-43.597 10.261-43.602 10.167L-43.786 6.746C-45.87 6.858-47.831 6.574-49.698 5.896-51.565 5.218-53.203 4.225-54.642 2.933-56.081 1.641-57.244 .103-58.117-1.666-58.991-3.45-59.499-5.383-59.61-7.452-59.722-9.536-59.424-11.512-58.745-13.365-58.067-15.232-57.075-16.885-55.783-18.323-54.491-19.762-52.968-20.925-51.186-21.842-49.405-22.759-47.486-23.266-45.403-23.377L-47.899-69.885C-48.013-72.026-47.718-74.046-46.999-75.943-46.293-77.841-45.287-79.495-43.992-80.89-42.699-82.3-41.16-83.435-39.391-84.322-37.608-85.196-35.688-85.689-33.604-85.8-31.52-85.912-29.545-85.629-27.693-84.95-25.825-84.258-24.173-83.294-22.736-82.031-21.3-80.782-20.151-79.244-19.261-77.432-18.385-75.62-17.89-73.643-17.775-71.502L-15.279-24.994-12.16-25.162C-10.019-25.276-8-24.996-6.104-24.305-4.208-23.628-2.555-22.636-1.146-21.357 .249-20.062 1.399-18.51 2.275-16.697 3.15-14.885 3.658-12.938 3.77-10.854 3.881-8.784 3.584-6.808 2.906-4.941 2.227-3.089 1.249-1.436 0 0" fill="#010101"/>
<path transform="matrix(1,0,0,-1,230.2236,232.2629)" d="M0 0C-2.089 .081-4.053-.314-5.904-1.169-7.757-2.038-9.39-3.175-10.822-4.608-12.238-6.027-13.397-7.617-14.295-9.349-15.18-11.097-15.714-12.808-15.885-14.498-16.054-16.173-15.872-17.956-15.354-19.846-14.821-21.737-14.001-23.497-12.894-25.142-11.774-26.803-10.4-28.244-8.762-29.494-7.121-30.73-5.275-31.495-3.204-31.761-2.238-31.931-1.281-32.057-.35-32.151 .595-32.246 1.536-32.24 2.5-32.149 3.451-32.042 4.455-31.84 5.5-31.511 6.545-31.197 7.697-30.677 8.956-29.95 10.62-28.947 12.398-27.954 14.259-26.999 16.12-26.044 18.063-25.43 20.088-25.143 22.113-24.855 24.217-25.082 26.399-25.823 28.58-26.563 30.795-28.132 33.028-30.513 34.502-32.108 35.538-33.876 36.122-35.83 36.721-37.785 36.867-39.782 36.603-41.824 36.326-43.85 35.663-45.837 34.583-47.797 33.504-49.742 31.991-51.542 30.062-53.171 25.491-56.904 20.334-59.552 14.59-61.143 8.833-62.717 2.812-63.18-3.46-62.547-10.076-61.88-16.159-60.095-21.709-57.177-27.273-54.258-32.005-50.54-35.905-46.038-39.789-41.524-42.724-36.353-44.683-30.528-46.655-24.702-47.333-18.515-46.745-11.963-46.079-5.362-44.183 .667-41.088 6.112-37.993 11.557-34.069 16.181-29.331 19.985-24.607 23.79-19.201 26.615-13.128 28.462-7.055 30.294-.718 30.884 5.898 30.217 12.17 29.584 17.976 27.913 23.302 25.221 28.615 22.529 33.137 18.891 36.872 14.333 38.436 12.339 39.573 10.271 40.265 8.104 40.958 5.936 41.238 3.839 41.103 1.784 40.955-.255 40.385-2.179 39.394-3.974 38.389-5.768 37.004-7.306 35.243-8.56 32.579-10.447 30.096-11.542 27.81-11.832 25.524-12.122 23.418-11.924 21.489-11.252 19.562-10.566 17.784-9.548 16.154-8.212 14.526-6.861 12.982-5.534 11.553-4.203 9.383-2.35 7.414-1.211 5.665-.774 3.901-.336 2.018-.073 0 0" fill="#010101"/>
<path transform="matrix(1,0,0,-1,309.3032,270.4882)" d="M0 0C0-2.288 .446-4.404 1.31-6.347 2.202-8.305 3.382-10.017 4.879-11.471 6.376-12.939 8.103-14.105 10.06-14.939 12.018-15.789 14.09-16.206 16.307-16.206 18.523-16.206 20.625-15.789 22.611-14.939 24.597-14.105 26.324-12.939 27.821-11.471 29.318-10.017 30.498-8.305 31.333-6.347 32.196-4.404 32.599-2.288 32.599 0 32.599 2.274 32.196 4.39 31.333 6.347 30.498 8.29 29.318 10.003 27.821 11.471 26.324 12.925 24.597 14.09 22.611 14.939 20.625 15.774 18.523 16.206 16.307 16.206 14.09 16.206 12.018 15.774 10.06 14.939 8.103 14.09 6.376 12.925 4.879 11.471 3.382 10.003 2.202 8.29 1.31 6.347 .446 4.39 0 2.274 0 0M-30.268 0C-30.268 6.433-29.03 12.478-26.554 18.106-24.079 23.733-20.74 28.67-16.508 32.901-12.277 37.133-7.34 40.457-1.713 42.904 3.929 45.351 9.916 46.56 16.307 46.56 22.755 46.56 28.8 45.351 34.413 42.904 40.055 40.457 44.948 37.133 49.151 32.901 53.353 28.67 56.692 23.733 59.11 18.106 61.557 12.478 62.795 6.433 62.795 0 62.795-6.39 61.557-12.406 59.11-18.063 56.692-23.733 53.353-28.656 49.151-32.858 44.948-37.061 40.055-40.371 34.413-42.818 28.8-45.265 22.755-46.474 16.307-46.474 9.916-46.474 3.929-45.265-1.713-42.818-7.34-40.371-12.277-37.061-16.508-32.858-20.74-28.656-24.079-23.733-26.554-18.063-29.03-12.406-30.268-6.39-30.268 0" fill="#010101"/>
<path transform="matrix(1,0,0,-1,383.8022,265.5335)" d="M0 0-4.85 30.97C-5.17 33.017-5.087 34.997-4.595 36.88-4.106 38.778-3.278 40.466-2.129 41.972-.979 43.463 .441 44.72 2.117 45.74 3.807 46.762 5.669 47.432 7.731 47.755 9.721 48.067 11.685 47.996 13.592 47.537 15.514 47.08 17.25 46.318 18.801 45.25 20.355 44.167 21.645 42.811 22.706 41.156 23.75 39.513 24.434 37.653 24.755 35.606L29.633 4.451C29.936 2.517 30.55 .647 31.457-1.149 32.353-2.961 33.499-4.515 34.861-5.86 36.22-7.191 37.791-8.198 39.571-8.867 41.368-9.547 43.29-9.726 45.337-9.406 49.333-8.78 52.244-6.999 54.088-4.073 55.948-1.16 56.602 2.381 56.087 6.51L50.966 39.215C50.654 41.205 50.756 43.159 51.241 45.085 51.726 47.011 52.533 48.74 53.63 50.296 54.741 51.854 56.138 53.165 57.809 54.213 59.493 55.278 61.366 55.965 63.414 56.286 65.405 56.597 67.384 56.514 69.341 56.019 71.296 55.539 73.055 54.722 74.617 53.582 76.18 52.443 77.491 51.046 78.584 49.367 79.678 47.688 80.372 45.859 80.684 43.869L90.321-17.672C90.644-19.734 90.544-21.702 90.012-23.606 89.478-25.496 88.64-27.216 87.451-28.742 86.279-30.28 84.837-31.584 83.123-32.639 81.409-33.694 79.492-34.388 77.374-34.72 74.672-35.143 72.187-34.905 69.906-34.01 67.626-33.128 65.676-31.744 64.059-29.885 61.495-32.399 58.749-34.489 55.808-36.174 52.881-37.856 49.775-38.954 46.49-39.468 40.774-40.363 35.305-39.953 30.095-38.219 24.887-36.5 20.216-33.837 16.099-30.242 11.965-26.636 8.496-22.255 5.677-17.088 2.86-11.935 .998-6.37 .06-.384L.029-.185Z" fill="#010101"/>
<path transform="matrix(1,0,0,-1,173.7426,67.56659)" d="M0 0C-21.397 4.154-42.589 6.663-61.198-2.894-84.456-13.922-93.692-45.536-75.648-65.078-60.703-82.005-28.351-99.923-16.147-124.558 8.825-167.189-1.144-231.097-53.66-246.98-84.941-257.856-123.314-242.505-148.354-234.176L-127.758-179.968C-101.679-190.506-75.969-209.858-54.477-193.985-42.69-184.491-42.062-156.773-49.479-141.374-61.931-112.523-95.337-98.047-106.234-66.976-121.316-29.716-92.512 13.248-53.728 17.665-33.491 20.638-14.666 15.873 2.72 10.438 6.795 8.622 5.77-.152 0 0" fill="#bd5d38"/>
<path transform="matrix(1,0,0,-1,0,371.332)" d="M24.401 25.414H48.317V345.917H24.401Z" fill="#010101"/>
<path transform="matrix(1,0,0,-1,537.6199,227.6891)" d="M0 0C0-2.288 .446-4.404 1.31-6.347 2.202-8.305 3.382-10.017 4.879-11.471 6.376-12.939 8.103-14.105 10.06-14.939 12.018-15.789 14.09-16.206 16.307-16.206 18.523-16.206 20.625-15.789 22.611-14.939 24.597-14.105 26.324-12.939 27.821-11.471 29.318-10.017 30.498-8.305 31.333-6.347 32.196-4.404 32.599-2.288 32.599 0 32.599 2.274 32.196 4.39 31.333 6.347 30.498 8.29 29.318 10.003 27.821 11.471 26.324 12.925 24.597 14.09 22.611 14.939 20.625 15.774 18.523 16.206 16.307 16.206 14.09 16.206 12.018 15.774 10.06 14.939 8.103 14.09 6.376 12.925 4.879 11.471 3.382 10.003 2.202 8.29 1.31 6.347 .446 4.39 0 2.274 0 0" fill="#bd5d38"/>
</g>
</g>
</svg>
